{"title":"Sleepy Hollow S03E16 Dawn's Early Light 1080P WEB-DL DD5 1 H 264","uid":14053814,"size":1857628994,"categoryP":"video","categoryS":"hd___tv_shows","magnet":"?xt=urn:btih:7f1ed3f9a6d1dcf2f867bb5cfd72a71b86aafba5&amp;dn=Sleepy+Hollow+S03E16+Dawn%27s+Early+Light+1080P+WEB-DL+DD5+1+H+264&amp;tr=udp%3A%2F%2Ftracker.leechers-paradise.org%3A6969&amp;tr=udp%3A%2F%2Fzer0day.ch%3A1337&amp;tr=udp%3A%2F%2Fopen.demonii.com%3A1337&amp;tr=udp%3A%2F%2Ftracker.coppersurfer.tk%3A6969&amp;tr=udp%3A%2F%2Fexodus.desync.com%3A6969","seeders":5,"leechers":0,"uploader":"jmanwf","files":2,"time":1459085603,"description":"Description\r\nAs The Hidden One grows stronger, Crane must examine his past with Betsy Ross to find the key to stopping him. Meanwhile, Jenny wonders if she can ever have a relationship with her father, and Abbie faces a hard decision as things with Reynolds become more strained.\r\n\r\n\r\nVideo\r\nID : 2\r\nFormat : AVC\r\nFormat/Info : Advanced Video Codec\r\nFormat profile :   \r\nFormat settings, CABAC : Yes\r\nFormat settings, ReFrames : 4 frames\r\nCodec ID : avc1\r\nCodec ID/Info : Advanced Video Coding\r\nDuration : 44mn 51s\r\nBit rate : 5 008 Kbps\r\nWidth : 1 920 pixels\r\nHeight : 1 080 pixels\r\nDisplay aspect ratio : 16:9\r\nFrame rate mode : Constant\r\nFrame rate : 23.976 (24000/1001) fps\r\nColor space : YUV\r\nChroma subsampling : 4:2:0\r\nBit depth : 8 bits\r\nScan type : Progressive\r\nBits/(Pixel*Frame) : 0.101\r\nStream size : 1.57 GiB (91%)\r\nLanguage : English\r\nEncoded date : UTC 2016-03-27 10:56:40\r\nTagged date : UTC 2016-03-27 11:00:11\r\nColor range : Limited\r\nColor primaries : BT.709\r\nTransfer characteristics : BT.709\r\nMatrix coefficients : BT.709\r\n\r\nAudio #1\r\nID : 1\r\nFormat : AAC\r\nFormat/Info : Advanced Audio Codec\r\nFormat profile : LC\r\nCodec ID : 40\r\nDuration : 44mn 51s\r\nBit rate mode : Variable\r\nBit rate : 126 Kbps\r\nMaximum bit rate : 210 Kbps\r\nChannel(s) : 2 channels\r\nChannel positions : Front: L R\r\nSampling rate : 48.0 KHz\r\nFrame rate : 46.875 fps (1024 spf)\r\nCompression mode : Lossy\r\nStream size : 40.4 MiB (2%)\r\nLanguage : English\r\nDefault : Yes\r\nAlternate group : 1\r\nEncoded date : UTC 2016-03-27 10:56:40\r\nTagged date : UTC 2016-03-27 11:00:11\r\n\r\nAudio #2\r\nID : 3\r\nFormat : AC-3\r\nFormat/Info : Audio Coding 3\r\nMode extension : CM (complete main)\r\nFormat settings, Endianness : Big\r\nCodec ID : ac-3\r\nDuration : 44mn 51s\r\nBit rate mode : Constant\r\nBit rate : 384 Kbps\r\nChannel(s) : 6 channels\r\nChannel positions : Front: L C R, Side: L R, LFE\r\nSampling rate : 48.0 KHz\r\nFrame rate : 31.250 fps (1536 spf)\r\nBit depth : 16 bits\r\nCompression mode : Lossy\r\nStream size : 123 MiB (7%)\r\nLanguage : English\r\nDefault : No\r\nAlternate group : 1\r\nEncoded date : UTC 2016-03-27 10:56:40\r\nTagged date : UTC 2016-03-27 11:00:11\r\n\r\nText\r\nID : 4-CC1\r\nFormat : EIA-608\r\nMuxing mode : Final Cut\r\nCodec ID : c608\r\nDuration : 44mn 50s\r\nBit rate mode : Constant\r\nStream size : 0.00 Byte (0%)\r\nLanguage : English\r\nForced : No\r\nEncoded date : UTC 2016-03-27 10:56:40\r\nTagged date : UTC 2016-03-27 10:56:45","torrent":{"xt":"urn:btih:7f1ed3f9a6d1dcf2f867bb5cfd72a71b86aafba5","amp;dn":"Sleepy+Hollow+S03E16+Dawn%27s+Early+Light+1080P+WEB-DL+DD5+1+H+264","amp;tr":["udp%3A%2F%2Ftracker.leechers-paradise.org%3A6969","udp%3A%2F%2Fzer0day.ch%3A1337","udp%3A%2F%2Fopen.demonii.com%3A1337","udp%3A%2F%2Ftracker.coppersurfer.tk%3A6969","udp%3A%2F%2Fexodus.desync.com%3A6969"],"infoHash":"7f1ed3f9a6d1dcf2f867bb5cfd72a71b86aafba5","infoHashBuffer":{"type":"Buffer","data":[127,30,211,249,166,209,220,242,248,103,187,92,253,114,167,27,134,170,251,165]},"announce":[],"urlList":[]}}